<svg width="27" height="27" viewBox="0 0 27 27" fill="none" xmlns="http://www.w3.org/2000/svg">
<rect width="26.832" height="26.832" rx="13.416" transform="matrix(-1 0 0 1 26.832 0)" fill="black"/>
<path d="M20.1212 6.30127H6.71086C6.48331 6.30127 6.30127 6.48331 6.30127 6.71086V13.1399C6.30127 13.3675 6.48331 13.5495 6.71086 13.5495C6.93841 13.5495 7.12045 13.3675 7.12045 13.1399V7.12045H19.7116V19.7116H13.6557C13.4282 19.7116 13.2461 19.8937 13.2461 20.1212C13.2461 20.3488 13.4282 20.5308 13.6557 20.5308H20.1212C20.3488 20.5308 20.5308 20.3488 20.5308 20.1212V6.71086C20.5308 6.48331 20.3488 6.30127 20.1212 6.30127Z" fill="white"/>
<path d="M11.629 14.7935H6.71086C6.48331 14.7935 6.30127 14.9755 6.30127 15.203V20.1212C6.30127 20.3487 6.48331 20.5308 6.71086 20.5308H11.629C11.8566 20.5308 12.0386 20.3487 12.0386 20.1212V15.203C12.0386 14.9785 11.8535 14.7935 11.629 14.7935ZM11.2194 19.7116H7.12045V15.6126H11.2194V19.7116Z" fill="white"/>
<path d="M17.2359 10.1755V12.3449C17.2359 12.5724 17.4179 12.7545 17.6455 12.7545C17.873 12.7545 18.0551 12.5724 18.0551 12.3449V9.18645C18.0551 8.9589 17.873 8.77686 17.6455 8.77686H14.4871C14.2595 8.77686 14.0775 8.9589 14.0775 9.18645C14.0775 9.414 14.2595 9.59604 14.4871 9.59604H16.6564L12.7486 13.5039C12.5878 13.6647 12.5878 13.9226 12.7486 14.0834C12.8275 14.1622 12.9337 14.2047 13.0368 14.2047C13.14 14.2047 13.2462 14.1653 13.325 14.0834L17.2359 10.1755Z" fill="white"/>
</svg>
