<svg width="27" height="27" viewBox="0 0 27 27" fill="none" xmlns="http://www.w3.org/2000/svg">
<rect width="26.832" height="26.832" rx="13.416" transform="matrix(-1 0 0 1 26.832 0)" fill="black"/>
<path d="M20.1212 6.30127H6.71086C6.48331 6.30127 6.30127 6.48331 6.30127 6.71086V13.1399C6.30127 13.3675 6.48331 13.5495 6.71086 13.5495C6.93841 13.5495 7.12045 13.3675 7.12045 13.1399V7.12045H19.7116V19.7116H13.6557C13.4282 19.7116 13.2461 19.8937 13.2461 20.1212C13.2461 20.3488 13.4282 20.5308 13.6557 20.5308H20.1212C20.3488 20.5308 20.5308 20.3488 20.5308 20.1212V6.71086C20.5308 6.48331 20.3488 6.30127 20.1212 6.30127Z" fill="white"/>
<path d="M11.629 14.7935H6.71086C6.48331 14.7935 6.30127 14.9755 6.30127 15.203V20.1212C6.30127 20.3487 6.48331 20.5308 6.71086 20.5308H11.629C11.8566 20.5308 12.0386 20.3487 12.0386 20.1212V15.203C12.0386 14.9785 11.8535 14.7935 11.629 14.7935ZM11.2194 19.7116H7.12045V15.6126H11.2194V19.7116Z" fill="white"/>
<path d="M13.4471 12.8062L13.4471 10.6368C13.4471 10.4093 13.2651 10.2272 13.0375 10.2272C12.81 10.2272 12.628 10.4093 12.628 10.6368L12.628 13.7952C12.628 14.0228 12.81 14.2048 13.0375 14.2048L16.196 14.2048C16.4235 14.2048 16.6056 14.0228 16.6056 13.7952C16.6056 13.5677 16.4235 13.3856 16.196 13.3856L14.0266 13.3856L17.9345 9.47783C18.0953 9.31703 18.0953 9.05914 17.9345 8.89834C17.8556 8.81945 17.7494 8.77698 17.6462 8.77698C17.5431 8.77698 17.4369 8.81642 17.358 8.89834L13.4471 12.8062Z" fill="white"/>
</svg>
